<svg width="29" height="29" viewBox="0 0 29 29" fill="none" xmlns="http://www.w3.org/2000/svg">
<path d="M23.2583 17.405C24.0213 15.9721 24.4192 14.3733 24.4168 12.75C24.4168 7.27306 19.9771 2.83331 14.5002 2.83331C9.02326 2.83331 4.58351 7.27306 4.58351 12.75C4.5795 15.0893 5.40642 17.354 6.91684 19.1404L6.92851 19.155C6.93259 19.1585 6.93609 19.1631 6.93901 19.1666H6.91684L12.8015 25.4141C13.0197 25.6457 13.2828 25.8302 13.5749 25.9563C13.867 26.0824 14.1818 26.1475 14.4999 26.1475C14.818 26.1475 15.1328 26.0824 15.4249 25.9563C15.7169 25.8302 15.9801 25.6457 16.1983 25.4141L22.0835 19.1666H22.0613L22.0707 19.1556L22.0718 19.1544C22.1138 19.1042 22.1558 19.0541 22.1973 19.0027C22.6019 18.5054 22.9574 17.9702 23.2589 17.4044L23.2583 17.405ZM14.5025 16.5416C13.5743 16.5416 12.684 16.1729 12.0276 15.5165C11.3713 14.8601 11.0025 13.9699 11.0025 13.0416C11.0025 12.1134 11.3713 11.2231 12.0276 10.5668C12.684 9.91039 13.5743 9.54165 14.5025 9.54165C15.4308 9.54165 16.321 9.91039 16.9774 10.5668C17.6338 11.2231 18.0025 12.1134 18.0025 13.0416C18.0025 13.9699 17.6338 14.8601 16.9774 15.5165C16.321 16.1729 15.4308 16.5416 14.5025 16.5416Z" fill="#35AFF4"/>
</svg>
