<svg width="38" height="37" viewBox="0 0 38 37" fill="none" xmlns="http://www.w3.org/2000/svg">
<path d="M34.6094 12.1406H3.39062C2.93064 12.1406 2.4895 11.9579 2.16424 11.6326C1.83898 11.3074 1.65625 10.8662 1.65625 10.4062C1.65625 9.94627 1.83898 9.50512 2.16424 9.17986C2.4895 8.8546 2.93064 8.67188 3.39062 8.67188H34.6094C35.0694 8.67188 35.5105 8.8546 35.8358 9.17986C36.161 9.50512 36.3438 9.94627 36.3438 10.4062C36.3438 10.8662 36.161 11.3074 35.8358 11.6326C35.5105 11.9579 35.0694 12.1406 34.6094 12.1406ZM28.8281 20.2344H9.17188C8.71189 20.2344 8.27074 20.0516 7.94549 19.7264C7.62023 19.4011 7.4375 18.96 7.4375 18.5C7.4375 18.04 7.62023 17.5989 7.94549 17.2736C8.27074 16.9484 8.71189 16.7656 9.17188 16.7656H28.8281C29.2881 16.7656 29.7293 16.9484 30.0545 17.2736C30.3798 17.5989 30.5625 18.04 30.5625 18.5C30.5625 18.96 30.3798 19.4011 30.0545 19.7264C29.7293 20.0516 29.2881 20.2344 28.8281 20.2344ZM21.8906 28.3281H16.1094C15.6494 28.3281 15.2082 28.1454 14.883 27.8201C14.5577 27.4949 14.375 27.0537 14.375 26.5938C14.375 26.1338 14.5577 25.6926 14.883 25.3674C15.2082 25.0421 15.6494 24.8594 16.1094 24.8594H21.8906C22.3506 24.8594 22.7918 25.0421 23.117 25.3674C23.4423 25.6926 23.625 26.1338 23.625 26.5938C23.625 27.0537 23.4423 27.4949 23.117 27.8201C22.7918 28.1454 22.3506 28.3281 21.8906 28.3281Z" fill="#35AFF4"/>
</svg>
