<svg width="40" height="40" viewBox="0 0 40 40" fill="none" xmlns="http://www.w3.org/2000/svg">
<path d="M20.0002 35L17.5835 32.8333C14.7779 30.3056 12.4585 28.125 10.6252 26.2917C8.79183 24.4583 7.3335 22.8122 6.25016 21.3533C5.16683 19.8956 4.41016 18.5556 3.98016 17.3333C3.55016 16.1111 3.33461 14.8611 3.3335 13.5833C3.3335 10.9722 4.2085 8.79167 5.9585 7.04167C7.7085 5.29167 9.88905 4.41667 12.5002 4.41667C13.9446 4.41667 15.3196 4.72222 16.6252 5.33333C17.9307 5.94445 19.0557 6.80556 20.0002 7.91667C20.9446 6.80556 22.0696 5.94445 23.3752 5.33333C24.6807 4.72222 26.0557 4.41667 27.5002 4.41667C30.1113 4.41667 32.2918 5.29167 34.0418 7.04167C35.7918 8.79167 36.6668 10.9722 36.6668 13.5833C36.6668 14.8611 36.4513 16.1111 36.0202 17.3333C35.5891 18.5556 34.8324 19.8956 33.7502 21.3533C32.6668 22.8122 31.2085 24.4583 29.3752 26.2917C27.5418 28.125 25.2224 30.3056 22.4168 32.8333L20.0002 35ZM20.0002 30.5C22.6668 28.1111 24.8613 26.0622 26.5835 24.3533C28.3057 22.6444 29.6668 21.1589 30.6668 19.8967C31.6668 18.6322 32.3613 17.5067 32.7502 16.52C33.139 15.5333 33.3335 14.5544 33.3335 13.5833C33.3335 11.9167 32.7779 10.5278 31.6668 9.41667C30.5557 8.30556 29.1668 7.75 27.5002 7.75C26.1946 7.75 24.9863 8.11778 23.8752 8.85333C22.7641 9.58889 22.0002 10.5267 21.5835 11.6667H18.4168C18.0002 10.5278 17.2363 9.59 16.1252 8.85333C15.0141 8.11667 13.8057 7.74889 12.5002 7.75C10.8335 7.75 9.44461 8.30556 8.3335 9.41667C7.22238 10.5278 6.66683 11.9167 6.66683 13.5833C6.66683 14.5556 6.86127 15.535 7.25016 16.5217C7.63905 17.5083 8.3335 18.6333 9.3335 19.8967C10.3335 21.16 11.6946 22.6461 13.4168 24.355C15.1391 26.0639 17.3335 28.1122 20.0002 30.5Z" fill="#35AFF4"/>
</svg>
