<svg width="21" height="20" viewBox="0 0 21 20" fill="none" xmlns="http://www.w3.org/2000/svg">
<path d="M17.4502 7.76667L5.78354 1.93334C5.32312 1.70418 4.80322 1.6226 4.29473 1.69971C3.78625 1.77683 3.31392 2.0089 2.94215 2.36427C2.57038 2.71964 2.31725 3.18102 2.21728 3.68551C2.11732 4.19 2.17537 4.71305 2.38354 5.18334L4.38354 9.65834C4.42892 9.76653 4.45229 9.88268 4.45229 10C4.45229 10.1173 4.42892 10.2335 4.38354 10.3417L2.38354 14.8167C2.21412 15.1973 2.1425 15.6142 2.17519 16.0295C2.20787 16.4448 2.34382 16.8454 2.57069 17.1948C2.79756 17.5442 3.10814 17.8313 3.47423 18.0302C3.84031 18.229 4.25027 18.3332 4.66687 18.3333C5.05707 18.3294 5.44145 18.2383 5.79187 18.0667L17.4585 12.2333C17.8724 12.0252 18.2202 11.7061 18.4633 11.3117C18.7063 10.9174 18.8351 10.4632 18.8351 10C18.8351 9.53676 18.7063 9.08263 18.4633 8.68827C18.2202 8.29392 17.8724 7.97485 17.4585 7.76667H17.4502ZM16.7085 10.7417L5.04187 16.575C4.88867 16.6486 4.71665 16.6735 4.54886 16.6465C4.38107 16.6196 4.22555 16.5419 4.10313 16.424C3.98072 16.3062 3.89727 16.1537 3.86398 15.987C3.83069 15.8204 3.84915 15.6475 3.91687 15.4917L5.90854 11.0167C5.93432 10.9569 5.95658 10.8957 5.97521 10.8333H11.7169C11.9379 10.8333 12.1498 10.7455 12.3061 10.5893C12.4624 10.433 12.5502 10.221 12.5502 10C12.5502 9.77899 12.4624 9.56703 12.3061 9.41075C12.1498 9.25447 11.9379 9.16667 11.7169 9.16667H5.97521C5.95658 9.10431 5.93432 9.0431 5.90854 8.98334L3.91687 4.50834C3.84915 4.35247 3.83069 4.17963 3.86398 4.01298C3.89727 3.84633 3.98072 3.69384 4.10313 3.57596C4.22555 3.45808 4.38107 3.38045 4.54886 3.35347C4.71665 3.32648 4.88867 3.35145 5.04187 3.42501L16.7085 9.25834C16.845 9.32827 16.9596 9.43452 17.0396 9.56538C17.1196 9.69624 17.1619 9.84663 17.1619 10C17.1619 10.1534 17.1196 10.3038 17.0396 10.4346C16.9596 10.5655 16.845 10.6717 16.7085 10.7417Z" fill="white"/>
</svg>
