<svg width="38" height="31" viewBox="0 0 38 31" fill="none" xmlns="http://www.w3.org/2000/svg">
<path d="M26.8892 0.300964C23.6852 0.300964 20.8416 1.49757 18.915 3.55429C16.9885 1.49757 14.1449 0.300964 10.9409 0.300964C8.15031 0.304159 5.47497 1.35445 3.50172 3.22146C1.52847 5.08848 0.418415 7.61977 0.415039 10.2601C0.415039 21.176 17.2899 29.8978 18.0076 30.2645C18.2865 30.4066 18.5983 30.481 18.915 30.481C19.2318 30.481 19.5436 30.4066 19.8225 30.2645C20.5402 29.8978 37.415 21.176 37.415 10.2601C37.4117 7.61977 36.3016 5.08848 34.3284 3.22146C32.3551 1.35445 29.6798 0.304159 26.8892 0.300964ZM26.0136 21.7826C23.7925 23.5659 21.418 25.171 18.915 26.5811C16.412 25.171 14.0376 23.5659 11.8165 21.7826C8.36047 18.9774 4.24263 14.6995 4.24263 10.2601C4.24263 8.57928 4.94833 6.96727 6.2045 5.77873C7.46068 4.59019 9.16441 3.92248 10.9409 3.92248C13.7797 3.92248 16.156 5.3409 17.1432 7.62548C17.2869 7.95852 17.5321 8.24352 17.8477 8.44413C18.1633 8.64475 18.5349 8.75189 18.915 8.75189C19.2952 8.75189 19.6668 8.64475 19.9824 8.44413C20.2979 8.24352 20.5432 7.95852 20.6869 7.62548C21.6741 5.3409 24.0504 3.92248 26.8892 3.92248C28.6657 3.92248 30.3694 4.59019 31.6256 5.77873C32.8817 6.96727 33.5875 8.57928 33.5875 10.2601C33.5875 14.6995 29.4696 18.9774 26.0136 21.7826Z" fill="black"/>
</svg>
