<svg width="38" height="31" viewBox="0 0 38 31" fill="none" xmlns="http://www.w3.org/2000/svg">
<path d="M26.8888 0.300964C23.6848 0.300964 20.8412 1.49757 18.9147 3.55429C16.9881 1.49757 14.1445 0.300964 10.9405 0.300964C8.14994 0.304159 5.47461 1.35445 3.50136 3.22146C1.52811 5.08848 0.418049 7.61977 0.414673 10.2601C0.414673 21.176 17.2895 29.8978 18.0072 30.2645C18.2861 30.4066 18.5979 30.481 18.9147 30.481C19.2314 30.481 19.5432 30.4066 19.8221 30.2645C20.5398 29.8978 37.4147 21.176 37.4147 10.2601C37.4113 7.61977 36.3012 5.08848 34.328 3.22146C32.3547 1.35445 29.6794 0.304159 26.8888 0.300964ZM26.0133 21.7826C23.7921 23.5659 21.4177 25.171 18.9147 26.5811C16.4117 25.171 14.0373 23.5659 11.8161 21.7826C8.3601 18.9774 4.24226 14.6995 4.24226 10.2601C4.24226 8.57928 4.94797 6.96727 6.20414 5.77873C7.46031 4.59019 9.16404 3.92248 10.9405 3.92248C13.7793 3.92248 16.1556 5.3409 17.1428 7.62548C17.2865 7.95852 17.5318 8.24352 17.8473 8.44413C18.1629 8.64475 18.5345 8.75189 18.9147 8.75189C19.2949 8.75189 19.6664 8.64475 19.982 8.44413C20.2976 8.24352 20.5428 7.95852 20.6865 7.62548C21.6737 5.3409 24.05 3.92248 26.8888 3.92248C28.6653 3.92248 30.369 4.59019 31.6252 5.77873C32.8814 6.96727 33.5871 8.57928 33.5871 10.2601C33.5871 14.6995 29.4692 18.9774 26.0133 21.7826Z" fill="black"/>
</svg>
