<svg width="17" height="16" viewBox="0 0 17 16" fill="none" xmlns="http://www.w3.org/2000/svg">
<path d="M7.74215 0.51869C8.03332 -0.172898 9.02502 -0.172897 9.31619 0.518692L11.0347 4.60057C11.1575 4.89213 11.4351 5.09134 11.7536 5.11657L16.2142 5.46986C16.97 5.52972 17.2765 6.46147 16.7006 6.94875L13.3022 9.82474C13.0594 10.0302 12.9534 10.3526 13.0275 10.6597L14.0658 14.9599C14.2417 15.6885 13.4395 16.2644 12.7924 15.874L8.97348 13.5695C8.7007 13.4049 8.35764 13.4049 8.08487 13.5695L4.26592 15.874C3.61887 16.2644 2.81658 15.6885 2.99249 14.9599L4.03081 10.6597C4.10497 10.3526 3.99896 10.0302 3.75622 9.82474L0.357658 6.94875C-0.218155 6.46147 0.0882983 5.52972 0.844063 5.46986L5.30472 5.11657C5.62334 5.09134 5.90088 4.89213 6.02363 4.60057L7.74215 0.51869Z" fill="#F9B811"/>
</svg>
