<svg width="30" height="29" viewBox="0 0 30 29" fill="none" xmlns="http://www.w3.org/2000/svg">
<path d="M13.6599 14.3893C13.6599 14.7981 13.8223 15.1903 14.1114 15.4794C14.4006 15.7685 14.7927 15.9309 15.2016 15.9309C15.6104 15.9309 16.0026 15.7685 16.2917 15.4794C16.5808 15.1903 16.7432 14.7981 16.7432 14.3893C16.7432 13.9804 16.5808 13.5883 16.2917 13.2991C16.0026 13.01 15.6104 12.8476 15.2016 12.8476C14.7927 12.8476 14.4006 13.01 14.1114 13.2991C13.8223 13.5883 13.6599 13.9804 13.6599 14.3893ZM20.0835 14.3893C20.0835 14.7981 20.2459 15.1903 20.5351 15.4794C20.8242 15.7685 21.2163 15.9309 21.6252 15.9309C22.0341 15.9309 22.4262 15.7685 22.7153 15.4794C23.0044 15.1903 23.1668 14.7981 23.1668 14.3893C23.1668 13.9804 23.0044 13.5883 22.7153 13.2991C22.4262 13.01 22.0341 12.8476 21.6252 12.8476C21.2163 12.8476 20.8242 13.01 20.5351 13.2991C20.2459 13.5883 20.0835 13.9804 20.0835 14.3893ZM7.23629 14.3893C7.23629 14.7981 7.39872 15.1903 7.68784 15.4794C7.97696 15.7685 8.36908 15.9309 8.77796 15.9309C9.18684 15.9309 9.57897 15.7685 9.86808 15.4794C10.1572 15.1903 10.3196 14.7981 10.3196 14.3893C10.3196 13.9804 10.1572 13.5883 9.86808 13.2991C9.57897 13.01 9.18684 12.8476 8.77796 12.8476C8.36908 12.8476 7.97696 13.01 7.68784 13.2991C7.39872 13.5883 7.23629 13.9804 7.23629 14.3893ZM28.4728 8.81356C27.7469 7.08882 26.7063 5.54073 25.3798 4.21104C24.0626 2.88905 22.4989 1.83823 20.7773 1.11807C19.0108 0.376148 17.1351 0.000366211 15.2016 0.000366211H15.1373C13.191 0.0100016 11.3057 0.395418 9.53273 1.1534C7.82584 1.88095 6.27681 2.93363 4.97197 4.2528C3.65834 5.57927 2.62735 7.12094 1.91433 8.83926C1.17562 10.6186 0.803047 12.5103 0.812682 14.4567C0.823581 16.6872 1.35128 18.8848 2.35435 20.8771V25.759C2.35435 26.1509 2.51001 26.5267 2.78708 26.8037C3.06415 27.0808 3.43994 27.2365 3.83178 27.2365H8.71694C10.7092 28.2396 12.9068 28.7672 15.1373 28.7781H15.2048C17.1287 28.7781 18.9947 28.4056 20.7516 27.6765C22.4645 26.9649 24.0224 25.9263 25.338 24.6189C26.6645 23.3052 27.7083 21.77 28.4374 20.0581C29.1954 18.2852 29.5808 16.3998 29.5905 14.4535C29.6001 12.4975 29.2211 10.5993 28.4728 8.81356ZM23.6197 22.8813C21.3682 25.1103 18.3813 26.3372 15.2016 26.3372H15.147C13.2103 26.3275 11.2864 25.8458 9.58734 24.94L9.31754 24.7955H4.79532V20.2733L4.65079 20.0035C3.74506 18.3044 3.26329 16.3806 3.25365 14.4439C3.24081 11.2417 4.46451 8.23544 6.70956 5.97111C8.9514 3.70679 11.948 2.45419 15.1502 2.44134H15.2048C16.8107 2.44134 18.3684 2.75288 19.8362 3.36955C21.2687 3.97016 22.5534 4.83413 23.6583 5.93899C24.7599 7.04064 25.6271 8.32858 26.2277 9.76104C26.8508 11.2449 27.1623 12.8187 27.1559 14.4439C27.1366 17.6428 25.8808 20.6394 23.6197 22.8813Z" fill="black"/>
</svg>
