<svg width="209" height="241" viewBox="0 0 209 241" fill="none" xmlns="http://www.w3.org/2000/svg">
<path d="M206.057 78.7659C193.693 24.4527 146.241 0 104.559 0C104.559 0 104.559 0 104.441 0C62.8765 0 15.3068 24.3351 2.94341 78.6483C-10.833 139.31 26.375 190.684 60.0506 223.013C72.5317 235.004 88.5453 241 104.559 241C120.572 241 136.586 235.004 148.949 223.013C182.625 190.684 219.833 139.427 206.057 78.7659ZM104.559 137.664C84.0709 137.664 67.4686 121.088 67.4686 100.632C67.4686 80.1766 84.0709 63.6005 104.559 63.6005C125.047 63.6005 141.649 80.1766 141.649 100.632C141.649 121.088 125.047 137.664 104.559 137.664Z" fill="white" fill-opacity="0.8"/>
</svg>
