<svg width="28" height="29" viewBox="0 0 28 29" fill="none" xmlns="http://www.w3.org/2000/svg">
<path d="M13.4167 25.875C6.82501 25.875 1.45834 20.5083 1.45834 13.9167C1.45834 7.32499 6.82501 1.95833 13.4167 1.95833C20.0083 1.95833 25.375 7.32499 25.375 13.9167C25.375 20.5083 20.0083 25.875 13.4167 25.875ZM13.4167 3.70833C7.78168 3.70833 3.20834 8.29333 3.20834 13.9167C3.20834 19.54 7.78168 24.125 13.4167 24.125C19.0517 24.125 23.625 19.54 23.625 13.9167C23.625 8.29333 19.0517 3.70833 13.4167 3.70833Z" fill="white"/>
<path d="M25.6667 27.0417C25.445 27.0417 25.2233 26.96 25.0483 26.785L22.715 24.4517C22.3767 24.1133 22.3767 23.5533 22.715 23.215C23.0533 22.8767 23.6133 22.8767 23.9517 23.215L26.285 25.5483C26.6233 25.8867 26.6233 26.4467 26.285 26.785C26.11 26.96 25.8883 27.0417 25.6667 27.0417Z" fill="white"/>
</svg>
