<svg width="29" height="28" viewBox="0 0 29 28" fill="none" xmlns="http://www.w3.org/2000/svg">
<path d="M23.2582 16.905C24.0211 15.4721 24.4191 13.8733 24.4167 12.25C24.4167 6.77306 19.9769 2.33331 14.5 2.33331C9.02308 2.33331 4.58333 6.77306 4.58333 12.25C4.57931 14.5893 5.40623 16.854 6.91666 18.6404L6.92833 18.655C6.93241 18.6585 6.93591 18.6631 6.93883 18.6666H6.91666L12.8013 24.9141C13.0195 25.1457 13.2827 25.3302 13.5747 25.4563C13.8668 25.5824 14.1816 25.6475 14.4997 25.6475C14.8178 25.6475 15.1326 25.5824 15.4247 25.4563C15.7167 25.3302 15.9799 25.1457 16.1981 24.9141L22.0833 18.6666H22.0612L22.0705 18.6556L22.0717 18.6544C22.1137 18.6042 22.1557 18.5541 22.1971 18.5027C22.6017 18.0054 22.9572 17.4702 23.2587 16.9044L23.2582 16.905ZM14.5023 16.0416C13.5741 16.0416 12.6838 15.6729 12.0275 15.0165C11.3711 14.3601 11.0023 13.4699 11.0023 12.5416C11.0023 11.6134 11.3711 10.7231 12.0275 10.0668C12.6838 9.41039 13.5741 9.04165 14.5023 9.04165C15.4306 9.04165 16.3208 9.41039 16.9772 10.0668C17.6336 10.7231 18.0023 11.6134 18.0023 12.5416C18.0023 13.4699 17.6336 14.3601 16.9772 15.0165C16.3208 15.6729 15.4306 16.0416 14.5023 16.0416Z" fill="white"/>
</svg>
