<svg width="29" height="29" viewBox="0 0 29 29" fill="none" xmlns="http://www.w3.org/2000/svg">
<path d="M23.2582 17.405C24.0211 15.9721 24.4191 14.3733 24.4167 12.75C24.4167 7.27306 19.9769 2.83331 14.5 2.83331C9.02308 2.83331 4.58333 7.27306 4.58333 12.75C4.57931 15.0893 5.40623 17.354 6.91666 19.1404L6.92833 19.155C6.93241 19.1585 6.93591 19.1631 6.93883 19.1666H6.91666L12.8013 25.4141C13.0195 25.6457 13.2827 25.8302 13.5747 25.9563C13.8668 26.0824 14.1816 26.1475 14.4997 26.1475C14.8178 26.1475 15.1326 26.0824 15.4247 25.9563C15.7167 25.8302 15.9799 25.6457 16.1981 25.4141L22.0833 19.1666H22.0612L22.0705 19.1556L22.0717 19.1544C22.1137 19.1042 22.1557 19.0541 22.1971 19.0027C22.6017 18.5054 22.9572 17.9702 23.2587 17.4044L23.2582 17.405ZM14.5023 16.5416C13.5741 16.5416 12.6838 16.1729 12.0275 15.5165C11.3711 14.8601 11.0023 13.9699 11.0023 13.0416C11.0023 12.1134 11.3711 11.2231 12.0275 10.5668C12.6838 9.91039 13.5741 9.54165 14.5023 9.54165C15.4306 9.54165 16.3208 9.91039 16.9772 10.5668C17.6336 11.2231 18.0023 12.1134 18.0023 13.0416C18.0023 13.9699 17.6336 14.8601 16.9772 15.5165C16.3208 16.1729 15.4306 16.5416 14.5023 16.5416Z" fill="#35AFF4"/>
</svg>
