<svg width="28" height="28" viewBox="0 0 28 28" fill="none" xmlns="http://www.w3.org/2000/svg">
<path d="M22.7582 16.905C23.5211 15.4721 23.9191 13.8733 23.9167 12.25C23.9167 6.77306 19.4769 2.33331 14 2.33331C8.52308 2.33331 4.08333 6.77306 4.08333 12.25C4.07931 14.5893 4.90623 16.854 6.41666 18.6404L6.42833 18.655C6.43241 18.6585 6.43591 18.6631 6.43883 18.6666H6.41666L12.3013 24.9141C12.5195 25.1457 12.7827 25.3302 13.0747 25.4563C13.3668 25.5824 13.6816 25.6475 13.9997 25.6475C14.3178 25.6475 14.6326 25.5824 14.9247 25.4563C15.2167 25.3302 15.4799 25.1457 15.6981 24.9141L21.5833 18.6666H21.5612L21.5705 18.6556L21.5717 18.6544C21.6137 18.6042 21.6557 18.5541 21.6971 18.5027C22.1017 18.0054 22.4572 17.4702 22.7587 16.9044L22.7582 16.905ZM14.0023 16.0416C13.0741 16.0416 12.1838 15.6729 11.5275 15.0165C10.8711 14.3601 10.5023 13.4699 10.5023 12.5416C10.5023 11.6134 10.8711 10.7231 11.5275 10.0668C12.1838 9.41039 13.0741 9.04165 14.0023 9.04165C14.9306 9.04165 15.8208 9.41039 16.4772 10.0668C17.1336 10.7231 17.5023 11.6134 17.5023 12.5416C17.5023 13.4699 17.1336 14.3601 16.4772 15.0165C15.8208 15.6729 14.9306 16.0416 14.0023 16.0416Z" fill="#35AFF4"/>
</svg>
